<svg width="18" height="19" viewBox="0 0 18 19" fill="none" xmlns="http://www.w3.org/2000/svg">
    <path d="M2.79314 4.65663L0 2.02403L1.21871 0.875L4.01099 3.50842H17.1387C17.2729 3.50841 17.4053 3.53799 17.5253 3.59479C17.6452 3.6516 17.7494 3.73406 17.8296 3.83559C17.9098 3.93711 17.9636 4.0549 17.9869 4.17955C18.0102 4.3042 18.0023 4.43226 17.9638 4.55351L15.8967 11.0498C15.8435 11.2171 15.7345 11.3638 15.5859 11.4681C15.4372 11.5724 15.2569 11.6288 15.0716 11.6287H4.5157V13.2528H13.9898V14.8769H3.65442C3.42599 14.8769 3.20692 14.7913 3.0454 14.639C2.88388 14.4867 2.79314 14.2802 2.79314 14.0648V4.65663ZM4.5157 5.13248V10.0047H14.4308L15.9811 5.13248H4.5157ZM4.08506 18.125C3.74242 18.125 3.41382 17.9967 3.17153 17.7682C2.92925 17.5398 2.79314 17.23 2.79314 16.907C2.79314 16.5839 2.92925 16.2741 3.17153 16.0457C3.41382 15.8172 3.74242 15.6889 4.08506 15.6889C4.4277 15.6889 4.75631 15.8172 4.99859 16.0457C5.24087 16.2741 5.37699 16.5839 5.37699 16.907C5.37699 17.23 5.24087 17.5398 4.99859 17.7682C4.75631 17.9967 4.4277 18.125 4.08506 18.125ZM14.4204 18.125C14.0778 18.125 13.7492 17.9967 13.5069 17.7682C13.2646 17.5398 13.1285 17.23 13.1285 16.907C13.1285 16.5839 13.2646 16.2741 13.5069 16.0457C13.7492 15.8172 14.0778 15.6889 14.4204 15.6889C14.7631 15.6889 15.0917 15.8172 15.334 16.0457C15.5763 16.2741 15.7124 16.5839 15.7124 16.907C15.7124 17.23 15.5763 17.5398 15.334 17.7682C15.0917 17.9967 14.7631 18.125 14.4204 18.125Z" fill="#333333"/>
</svg>
