<svg width="162" height="145" viewBox="0 0 162 145" fill="none" xmlns="http://www.w3.org/2000/svg">
    <path d="M25.4831 31.7876L0.5 9.65848L11.4007 0L36.3761 22.136H153.796C154.997 22.1359 156.181 22.3846 157.254 22.862C158.327 23.3395 159.259 24.0326 159.976 24.8861C160.693 25.7395 161.175 26.7296 161.383 27.7774C161.591 28.8252 161.521 29.9016 161.176 30.9208L142.687 85.527C142.211 86.9337 141.236 88.1669 139.907 89.0437C138.577 89.9204 136.964 90.3939 135.307 90.3938H40.8905V104.045H125.631V117.697H33.1868C31.1436 117.697 29.1842 116.978 27.7394 115.698C26.2947 114.418 25.4831 112.681 25.4831 110.871V31.7876ZM40.8905 35.7876V76.7422H129.575L143.442 35.7876H40.8905ZM37.0386 145C33.9739 145 31.0347 143.921 28.8676 142.001C26.7005 140.081 25.4831 137.477 25.4831 134.761C25.4831 132.046 26.7005 129.442 28.8676 127.522C31.0347 125.601 33.9739 124.523 37.0386 124.523C40.1033 124.523 43.0425 125.601 45.2096 127.522C47.3767 129.442 48.5942 132.046 48.5942 134.761C48.5942 137.477 47.3767 140.081 45.2096 142.001C43.0425 143.921 40.1033 145 37.0386 145ZM129.483 145C126.418 145 123.479 143.921 121.312 142.001C119.145 140.081 117.927 137.477 117.927 134.761C117.927 132.046 119.145 129.442 121.312 127.522C123.479 125.601 126.418 124.523 129.483 124.523C132.548 124.523 135.487 125.601 137.654 127.522C139.821 129.442 141.038 132.046 141.038 134.761C141.038 137.477 139.821 140.081 137.654 142.001C135.487 143.921 132.548 145 129.483 145Z" fill="#DADADA"/>
</svg>
