<svg width="132" height="168" viewBox="0 0 132 168" fill="none" xmlns="http://www.w3.org/2000/svg">
    <path d="M25.7039 40.715C25.7039 37.3532 28.401 34.628 31.7282 34.628H57.4321C60.7592 34.628 63.4564 37.3532 63.4564 40.715C63.4564 44.0767 60.7592 46.8019 57.4321 46.8019H31.7282C28.401 46.8019 25.7039 44.0767 25.7039 40.715Z" fill="#DADADA"/>
    <path d="M25.7039 75.343C25.7039 71.9813 28.401 69.256 31.7282 69.256H100.272C103.599 69.256 106.296 71.9813 106.296 75.343C106.296 78.7047 103.599 81.43 100.272 81.43H31.7282C28.401 81.43 25.7039 78.7047 25.7039 75.343Z" fill="#DADADA"/>
    <path d="M25.7039 101.314C25.7039 97.9523 28.401 95.2271 31.7282 95.2271H100.272C103.599 95.2271 106.296 97.9523 106.296 101.314C106.296 104.676 103.599 107.401 100.272 107.401H31.7282C28.401 107.401 25.7039 104.676 25.7039 101.314Z" fill="#DADADA"/>
    <path d="M25.7039 127.285C25.7039 123.923 28.401 121.198 31.7282 121.198H100.272C103.599 121.198 106.296 123.923 106.296 127.285C106.296 130.647 103.599 133.372 100.272 133.372H31.7282C28.401 133.372 25.7039 130.647 25.7039 127.285Z" fill="#DADADA"/>
    <path fill-rule="evenodd" clip-rule="evenodd" d="M1.76472 1.7826C2.89464 0.641051 4.42713 -0.000174372 6.02499 3.55685e-08L51.2506 0.00494123C51.3709 0.00495413 51.4904 0.00852845 51.6089 0.0155656C55.6813 0.0330358 59.7332 0.348295 63.6151 1.05944C82.5755 3.73322 98.5046 11.4459 110.261 23.6874C123.327 37.2928 130.746 55.9785 131.843 78.1704C131.925 79.1547 131.972 80.1421 131.983 81.1305C131.994 81.2835 132 81.438 132 81.5939V161.913C132 165.275 129.303 168 125.976 168H6.02434C2.69719 168 0 165.275 0 161.913V6.08696C0 4.47248 0.634795 2.92414 1.76472 1.7826ZM119.951 84.4275C119.942 84.2863 119.937 84.1437 119.937 84C119.937 82.3092 119.898 80.6458 119.821 79.0099C119.757 78.3002 119.667 77.5929 119.551 76.8894C118.084 68.0157 115.34 61.5388 111.583 57.6679C108.144 54.1247 103.268 52.1462 95.6043 53.4394L84.1282 55.3758C82.2086 55.6997 80.2523 55.0666 78.8761 53.6761C77.4998 52.2856 76.8733 50.309 77.1939 48.3694L79.1104 36.774C79.3671 35.2204 79.4962 33.6479 79.4962 32.0728C79.4962 24.458 76.5989 19.9292 72.183 17.0083C69.426 15.1848 65.8767 13.8676 61.6696 13.0758C58.294 12.6113 54.7822 12.3234 51.1373 12.2208L48.7814 12.1881C48.6919 12.1869 48.6029 12.1837 48.5145 12.1786L12.0487 12.1746V155.826H119.951V84.4275ZM90.449 23.098C91.168 25.8468 91.5449 28.8393 91.5449 32.0728C91.5449 34.3198 91.3608 36.5629 90.9945 38.7792L90.4682 41.9635L93.6197 41.4318C99.4793 40.443 104.772 40.7789 109.43 42.3286C107.155 38.6031 104.54 35.2115 101.614 32.1652C98.3261 28.7415 94.5992 25.7053 90.449 23.098Z" fill="#DADADA"/>
</svg>
