<svg width="166" height="166" viewBox="0 0 166 166" fill="none" xmlns="http://www.w3.org/2000/svg">
    <path d="M50.528 153.274L52.4737 148.668H52.4737L50.528 153.274ZM10 44C10 41.2386 7.76142 39 5 39C2.23858 39 0 41.2386 0 44H10ZM80.2 77.9677C80.2 75.2063 77.9614 72.9677 75.2 72.9677C72.4386 72.9677 70.2 75.2063 70.2 77.9677H80.2ZM140.4 79.1C140.4 81.8614 142.639 84.1 145.4 84.1C148.161 84.1 150.4 81.8614 150.4 79.1H140.4ZM150.4 44C150.4 41.2386 148.161 39 145.4 39C142.639 39 140.4 41.2386 140.4 44H150.4ZM84.5376 164.42C87.1652 163.571 88.6069 160.753 87.7577 158.125C86.9085 155.497 84.09 154.056 81.4624 154.905L84.5376 164.42ZM126.264 126.268C124.312 128.221 124.312 131.387 126.264 133.34C128.217 135.292 131.383 135.292 133.336 133.34L126.264 126.268ZM140.4 126.275C142.352 124.323 142.352 121.157 140.4 119.204C138.447 117.252 135.281 117.252 133.329 119.204L140.4 126.275ZM23.7568 53.9672L25.9347 49.4664H25.9347L23.7568 53.9672ZM46.5422 64.9928L44.3643 69.4935L46.5422 64.9928ZM103.858 64.9928L101.68 60.492L103.858 64.9928ZM126.643 53.9672L124.465 49.4664L126.643 53.9672ZM23.7568 26.2328L25.9347 30.7336L23.7568 26.2328ZM46.5422 15.2072L48.72 19.708L46.5422 15.2072ZM103.858 15.2072L101.68 19.708L103.858 15.2072ZM126.643 26.2328L124.465 30.7336L126.643 26.2328ZM30.6361 78.5279C28.1662 77.2929 25.1628 78.294 23.9279 80.7639C22.6929 83.2338 23.694 86.2372 26.1639 87.4721L30.6361 78.5279ZM41.7639 95.2721C44.2338 96.5071 47.2372 95.506 48.4721 93.0361C49.7071 90.5662 48.706 87.5628 46.2361 86.3279L41.7639 95.2721ZM116.436 25.0721C118.906 23.8372 119.907 20.8338 118.672 18.3639C117.437 15.894 114.434 14.8929 111.964 16.1279L116.436 25.0721ZM33.9639 55.1279C31.494 56.3628 30.4929 59.3662 31.7279 61.8361C32.9628 64.306 35.9662 65.3071 38.4361 64.0721L33.9639 55.1279ZM48.5824 157.88C60.3867 162.866 67.5684 166 75.2 166V156C70.068 156 65.0563 153.983 52.4737 148.668L48.5824 157.88ZM52.4737 148.668C37.1432 142.192 26.1648 137.541 18.9547 133.214C11.5878 128.794 10 125.789 10 123.258H0C0 131.511 6.00022 137.103 13.8093 141.789C21.7752 146.569 33.5609 151.534 48.5824 157.88L52.4737 148.668ZM10 123.258V44H0V123.258H10ZM80.2 161L80.2 77.9677H70.2L70.2 161H80.2ZM150.4 79.1V44H140.4V79.1H150.4ZM81.4624 154.905C79.0848 155.673 77.2245 156 75.2 156V166C78.486 166 81.3971 165.435 84.5376 164.42L81.4624 154.905ZM166 129.8C166 109.807 149.793 93.6 129.8 93.6V103.6C144.27 103.6 156 115.33 156 129.8H166ZM129.8 93.6C109.807 93.6 93.6 109.807 93.6 129.8H103.6C103.6 115.33 115.33 103.6 129.8 103.6V93.6ZM93.6 129.8C93.6 149.793 109.807 166 129.8 166V156C115.33 156 103.6 144.27 103.6 129.8H93.6ZM129.8 166C149.793 166 166 149.793 166 129.8H156C156 144.27 144.27 156 129.8 156V166ZM133.336 133.34L140.4 126.275L133.329 119.204L126.264 126.268L133.336 133.34ZM21.5789 58.468L44.3643 69.4935L48.72 60.492L25.9347 49.4664L21.5789 58.468ZM106.036 69.4936L128.821 58.468L124.465 49.4664L101.68 60.492L106.036 69.4936ZM25.9347 30.7336L48.72 19.708L44.3643 10.7064L21.5789 21.732L25.9347 30.7336ZM101.68 19.708L124.465 30.7336L128.821 21.732L106.036 10.7064L101.68 19.708ZM48.72 19.708C63.2156 12.6937 69.0504 10 75.2 10V0C66.2222 0 57.9942 4.11108 44.3643 10.7064L48.72 19.708ZM106.036 10.7064C92.4058 4.11108 84.1778 0 75.2 0V10C81.3496 10 87.1844 12.6937 101.68 19.708L106.036 10.7064ZM128.821 58.468C134.922 55.5159 140.012 53.0671 143.509 50.7045C146.94 48.3873 150.4 45.1284 150.4 40.1H140.4C140.4 40.139 140.396 40.1467 140.392 40.1577C140.386 40.1769 140.349 40.2736 140.214 40.4552C139.91 40.8642 139.255 41.5106 137.912 42.4178C135.158 44.2784 130.869 46.3677 124.465 49.4664L128.821 58.468ZM124.465 30.7336C130.869 33.8323 135.158 35.9216 137.912 37.7822C139.255 38.6894 139.91 39.3358 140.214 39.7448C140.349 39.9264 140.386 40.023 140.392 40.0423C140.396 40.0533 140.4 40.0609 140.4 40.1H150.4C150.4 35.0716 146.94 31.8127 143.509 29.4955C140.012 27.1329 134.922 24.6841 128.821 21.732L124.465 30.7336ZM44.3643 69.4935C57.9942 76.0889 66.2222 80.2 75.2 80.2V70.2C69.0504 70.2 63.2156 67.5063 48.72 60.492L44.3643 69.4935ZM101.68 60.492C87.1844 67.5063 81.3496 70.2 75.2 70.2V80.2C84.1779 80.2 92.4058 76.0889 106.036 69.4936L101.68 60.492ZM25.9347 49.4664C19.5309 46.3677 15.2425 44.2784 12.4879 42.4178C11.1448 41.5106 10.4897 40.8642 10.1858 40.4552C10.0509 40.2736 10.0143 40.1769 10.0075 40.1577C10.0036 40.1466 10 40.139 10 40.1H0C0 45.1284 3.45993 48.3873 6.89052 50.7045C10.3882 53.0671 15.4782 55.5159 21.5789 58.468L25.9347 49.4664ZM21.5789 21.732C15.4782 24.6841 10.3882 27.1329 6.89052 29.4955C3.45993 31.8127 0 35.0716 0 40.1H10C10 40.0609 10.0036 40.0533 10.0075 40.0423C10.0143 40.023 10.0509 39.9264 10.1858 39.7448C10.4897 39.3358 11.1448 38.6894 12.4879 37.7822C15.2425 35.9216 19.5309 33.8323 25.9347 30.7336L21.5789 21.732ZM26.1639 87.4721L41.7639 95.2721L46.2361 86.3279L30.6361 78.5279L26.1639 87.4721ZM111.964 16.1279L33.9639 55.1279L38.4361 64.0721L116.436 25.0721L111.964 16.1279Z" fill="#DADADA"/>
</svg>
