<svg width="20" height="21" viewBox="0 0 20 21" fill="none" xmlns="http://www.w3.org/2000/svg">
    <path d="M6.25323 18.6085L6.54508 17.9176H6.54508L6.25323 18.6085ZM1.75 6C1.75 5.58579 1.41421 5.25 1 5.25C0.585786 5.25 0.25 5.58579 0.25 6H1.75ZM9.85 9.91935C9.85 9.50514 9.51421 9.16935 9.1 9.16935C8.68579 9.16935 8.35 9.50514 8.35 9.91935H9.85ZM16.45 10.05C16.45 10.4642 16.7858 10.8 17.2 10.8C17.6142 10.8 17.95 10.4642 17.95 10.05H16.45ZM17.95 6C17.95 5.58579 17.6142 5.25 17.2 5.25C16.7858 5.25 16.45 5.58579 16.45 6H17.95ZM10.2306 20.0593C10.6248 19.932 10.841 19.5092 10.7137 19.115C10.5863 18.7209 10.1635 18.5046 9.76936 18.632L10.2306 20.0593ZM14.8697 15.3701C14.5768 15.663 14.5768 16.1379 14.8697 16.4308C15.1626 16.7237 15.6374 16.7237 15.9303 16.4308L14.8697 15.3701ZM16.7454 15.6157C17.0383 15.3228 17.0383 14.8479 16.7454 14.555C16.4525 14.2622 15.9776 14.2622 15.6848 14.555L16.7454 15.6157ZM3.16424 7.15006L3.49092 6.47495L3.16424 7.15006ZM5.79333 8.42224L5.46665 9.09736L5.79333 8.42224ZM12.4067 8.42225L12.08 7.74713V7.74713L12.4067 8.42225ZM15.0358 7.15006L14.7091 6.47495H14.7091L15.0358 7.15006ZM3.16424 3.94994L3.49092 4.62505L3.16424 3.94994ZM5.79333 2.67775L6.12001 3.35287L5.79333 2.67775ZM12.4067 2.67775L12.08 3.35287V3.35287L12.4067 2.67775ZM15.0358 3.94994L14.7091 4.62505L15.0358 3.94994ZM4.03541 9.82918C3.66493 9.64394 3.21442 9.79411 3.02918 10.1646C2.84394 10.5351 2.99411 10.9856 3.36459 11.1708L4.03541 9.82918ZM5.16459 12.0708C5.53507 12.2561 5.98558 12.1059 6.17082 11.7354C6.35606 11.3649 6.20589 10.9144 5.83541 10.7292L5.16459 12.0708ZM13.9354 3.97082C14.3059 3.78558 14.4561 3.33507 14.2708 2.96459C14.0856 2.59411 13.6351 2.44394 13.2646 2.62918L13.9354 3.97082ZM4.26459 7.12918C3.89411 7.31442 3.74394 7.76493 3.92918 8.13541C4.11442 8.50589 4.56493 8.65606 4.93541 8.47082L4.26459 7.12918ZM5.96139 19.2994C7.30995 19.8691 8.17616 20.25 9.1 20.25V18.75C8.55111 18.75 8.01039 18.5366 6.54508 17.9176L5.96139 19.2994ZM6.54508 17.9176C4.77083 17.1681 3.51807 16.6369 2.69921 16.1455C1.85684 15.6401 1.75 15.3381 1.75 15.1452H0.25C0.25 16.1964 1.0187 16.8865 1.92741 17.4317C2.85963 17.9911 4.23348 18.5695 5.96139 19.2994L6.54508 17.9176ZM1.75 15.1452V6H0.25V15.1452H1.75ZM9.85 19.5L9.85 9.91935H8.35L8.35 19.5H9.85ZM17.95 10.05V6H16.45V10.05H17.95ZM9.76936 18.632C9.50823 18.7164 9.31176 18.75 9.1 18.75V20.25C9.50099 20.25 9.85507 20.1807 10.2306 20.0593L9.76936 18.632ZM19.75 15.9C19.75 13.4976 17.8024 11.55 15.4 11.55V13.05C16.974 13.05 18.25 14.326 18.25 15.9H19.75ZM15.4 11.55C12.9976 11.55 11.05 13.4976 11.05 15.9H12.55C12.55 14.326 13.826 13.05 15.4 13.05V11.55ZM11.05 15.9C11.05 18.3024 12.9976 20.25 15.4 20.25V18.75C13.826 18.75 12.55 17.474 12.55 15.9H11.05ZM15.4 20.25C17.8024 20.25 19.75 18.3024 19.75 15.9H18.25C18.25 17.474 16.974 18.75 15.4 18.75V20.25ZM15.9303 16.4308L16.7454 15.6157L15.6848 14.555L14.8697 15.3701L15.9303 16.4308ZM2.83756 7.82517L5.46665 9.09736L6.12001 7.74713L3.49092 6.47495L2.83756 7.82517ZM12.7334 9.09736L15.3624 7.82518L14.7091 6.47495L12.08 7.74713L12.7334 9.09736ZM3.49092 4.62505L6.12001 3.35287L5.46665 2.00264L2.83756 3.27482L3.49092 4.62505ZM12.08 3.35287L14.7091 4.62505L15.3624 3.27482L12.7334 2.00264L12.08 3.35287ZM6.12001 3.35287C7.80756 2.53628 8.43938 2.25 9.1 2.25V0.75C8.01515 0.75 7.02435 1.24889 5.46665 2.00264L6.12001 3.35287ZM12.7334 2.00264C11.1757 1.24889 10.1849 0.75 9.1 0.75V2.25C9.76062 2.25 10.3924 2.53628 12.08 3.35287L12.7334 2.00264ZM15.3624 7.82518C16.0611 7.48709 16.6623 7.19831 17.0787 6.91702C17.4851 6.64253 17.95 6.22134 17.95 5.55H16.45C16.45 5.43147 16.5542 5.46122 16.2391 5.67402C15.9342 5.88002 15.4532 6.11486 14.7091 6.47495L15.3624 7.82518ZM14.7091 4.62505C15.4532 4.98514 15.9342 5.21998 16.2391 5.42598C16.5542 5.63878 16.45 5.66853 16.45 5.55H17.95C17.95 4.87866 17.4851 4.45747 17.0787 4.18298C16.6623 3.90169 16.0611 3.61291 15.3624 3.27482L14.7091 4.62505ZM5.46665 9.09736C7.02434 9.85111 8.01515 10.35 9.1 10.35V8.85C8.43938 8.85 7.80756 8.56372 6.12001 7.74713L5.46665 9.09736ZM12.08 7.74713C10.3924 8.56372 9.76062 8.85 9.1 8.85V10.35C10.1849 10.35 11.1757 9.85111 12.7334 9.09736L12.08 7.74713ZM3.49092 6.47495C2.74678 6.11486 2.26584 5.88002 1.96086 5.67402C1.64582 5.46122 1.75 5.43147 1.75 5.55H0.25C0.25 6.22134 0.714883 6.64253 1.12126 6.91702C1.5377 7.19831 2.13888 7.48709 2.83756 7.82517L3.49092 6.47495ZM2.83756 3.27482C2.13888 3.61291 1.5377 3.90169 1.12126 4.18298C0.714883 4.45747 0.25 4.87866 0.25 5.55H1.75C1.75 5.66853 1.64582 5.63878 1.96086 5.42598C2.26584 5.21998 2.74678 4.98514 3.49092 4.62505L2.83756 3.27482ZM3.36459 11.1708L5.16459 12.0708L5.83541 10.7292L4.03541 9.82918L3.36459 11.1708ZM13.2646 2.62918L4.26459 7.12918L4.93541 8.47082L13.9354 3.97082L13.2646 2.62918Z" fill="#2C64FD"/>
</svg>
