<svg width="20" height="21" viewBox="0 0 20 21" fill="none" xmlns="http://www.w3.org/2000/svg">
    <path d="M9.88945 7.1843C8.46925 7.1843 7.42857 8.00993 7.42857 8.96813C7.42857 9.92629 8.09957 10.5253 10 10.5253C12.0934 10.5253 12.5714 11.4799 12.5714 12.4381C12.5714 13.3962 11.6564 14.1531 9.88945 14.1531M9.88945 7.1843C11.0091 7.1843 11.6008 7.57626 12.0681 8.10391M9.88945 7.1843V6.09885M9.88945 14.1531C8.76985 14.1531 8.33451 13.9319 7.71781 13.3739M9.88945 14.1531V15.1655M19 10.6542C19 15.6247 14.9706 19.6542 10 19.6542C5.02944 19.6542 1 15.6247 1 10.6542C1 5.68362 5.02944 1.65417 10 1.65417C14.9706 1.65417 19 5.68362 19 10.6542Z" stroke="#141B34" stroke-width="1.5" stroke-linecap="round"/>
</svg>
