<svg width="27" height="24" viewBox="0 0 27 24" fill="none" xmlns="http://www.w3.org/2000/svg">
    <g opacity="0.5" clip-path="url(#clip0_8_1208)">
        <path d="M3.38477 10.0938C2.60812 10.0938 1.97852 10.7234 1.97852 11.5C1.97852 12.2767 2.60812 12.9063 3.38477 12.9063V10.0938ZM23.3848 12.9063C24.1614 12.9063 24.791 12.2767 24.791 11.5C24.791 10.7234 24.1614 10.0938 23.3848 10.0938V12.9063ZM3.38477 2.59375C2.60812 2.59375 1.97852 3.22335 1.97852 4C1.97852 4.77665 2.60812 5.40625 3.38477 5.40625V2.59375ZM23.3848 5.40625C24.1614 5.40625 24.791 4.77665 24.791 4C24.791 3.22335 24.1614 2.59375 23.3848 2.59375V5.40625ZM3.38477 17.5938C2.60812 17.5938 1.97852 18.2234 1.97852 19C1.97852 19.7767 2.60812 20.4063 3.38477 20.4063V17.5938ZM23.3848 20.4063C24.1614 20.4063 24.791 19.7767 24.791 19C24.791 18.2234 24.1614 17.5938 23.3848 17.5938V20.4063ZM3.38477 12.9063H23.3848V10.0938H3.38477V12.9063ZM3.38477 5.40625H23.3848V2.59375H3.38477V5.40625ZM3.38477 20.4063H23.3848V17.5938H3.38477V20.4063Z" fill="#9C9EA8"/>
    </g>
    <defs>
        <clipPath id="clip0_8_1208">
            <rect width="26.7283" height="24" fill="white" transform="translate(0.00878906)"/>
        </clipPath>
    </defs>
</svg>
