<svg width="28" height="24" viewBox="0 0 28 24" fill="none" xmlns="http://www.w3.org/2000/svg">
    <g clip-path="url(#clip0_8_1212)">
        <path d="M24.1226 21.1997C24.1226 21.4828 24.0055 21.7544 23.7971 21.9546C23.5887 22.1549 23.3061 22.2673 23.0114 22.2673H5.23367C4.93898 22.2673 4.65637 22.1549 4.448 21.9546C4.23962 21.7544 4.12256 21.4828 4.12256 21.1997V9.97866C4.12244 9.81596 4.16102 9.65539 4.23535 9.50921C4.30969 9.36303 4.4178 9.23511 4.55145 9.13521L13.4403 2.49228C13.6354 2.34649 13.8754 2.26733 14.1226 2.26733C14.3697 2.26733 14.6097 2.34649 14.8048 2.49228L23.6937 9.13521C23.8273 9.23511 23.9354 9.36303 24.0098 9.50921C24.0841 9.65539 24.1227 9.81596 24.1226 9.97866V21.1997ZM21.9003 20.132V10.4997L14.1226 4.68737L6.34478 10.4997V20.132H21.9003Z" fill="#9C9EA8"/>
    </g>
    <defs>
        <clipPath id="clip0_8_1212">
            <rect width="27.0846" height="24" fill="white" transform="translate(0.737061)"/>
        </clipPath>
    </defs>
</svg>
