<svg width="18" height="19" viewBox="0 0 18 19" fill="none" xmlns="http://www.w3.org/2000/svg">
    <path d="M18 17.5391C18 17.794 17.8946 18.0384 17.7071 18.2186C17.5196 18.3988 17.2652 18.5 17 18.5H1C0.734784 18.5 0.48043 18.3988 0.292893 18.2186C0.105357 18.0384 2.4071e-07 17.794 2.4071e-07 17.5391V7.44019C-0.000105484 7.29376 0.0346172 7.14925 0.101516 7.01769C0.168415 6.88613 0.26572 6.771 0.386 6.68109L8.386 0.702453C8.56154 0.571239 8.7776 0.5 9 0.5C9.2224 0.5 9.43846 0.571239 9.614 0.702453L17.614 6.68109C17.7343 6.771 17.8316 6.88613 17.8985 7.01769C17.9654 7.14925 18.0001 7.29376 18 7.44019V17.5391ZM16 16.5782V7.9091L9 2.67804L2 7.9091V16.5782H16Z" fill="#141B34"/>
</svg>
