<svg width="16" height="21" viewBox="0 0 16 21" fill="none" xmlns="http://www.w3.org/2000/svg">
    <path d="M3.11562 4.88438C3.11562 4.48109 3.44255 4.15416 3.84584 4.15416H6.96146C7.36475 4.15416 7.69168 4.48109 7.69168 4.88438C7.69168 5.28767 7.36475 5.6146 6.96146 5.6146H3.84584C3.44255 5.6146 3.11562 5.28767 3.11562 4.88438Z" fill="black"/>
    <path d="M3.11562 9.03854C3.11562 8.63525 3.44255 8.30832 3.84584 8.30832H12.1542C12.5575 8.30832 12.8844 8.63525 12.8844 9.03854C12.8844 9.44183 12.5575 9.76876 12.1542 9.76876H3.84584C3.44255 9.76876 3.11562 9.44183 3.11562 9.03854Z" fill="black"/>
    <path d="M3.11562 12.1542C3.11562 11.7509 3.44255 11.4239 3.84584 11.4239H12.1542C12.5575 11.4239 12.8844 11.7509 12.8844 12.1542C12.8844 12.5575 12.5575 12.8844 12.1542 12.8844H3.84584C3.44255 12.8844 3.11562 12.5575 3.11562 12.1542Z" fill="black"/>
    <path d="M3.11562 15.2698C3.11562 14.8665 3.44255 14.5396 3.84584 14.5396H12.1542C12.5575 14.5396 12.8844 14.8665 12.8844 15.2698C12.8844 15.6731 12.5575 16 12.1542 16H3.84584C3.44255 16 3.11562 15.6731 3.11562 15.2698Z" fill="black"/>
    <path fill-rule="evenodd" clip-rule="evenodd" d="M0.213905 0.213849C0.350866 0.0769038 0.536621 -2.09185e-05 0.730302 4.26699e-09L6.2122 0.000592776C6.22678 0.000594323 6.24125 0.00102312 6.25562 0.00186733C6.74924 0.00396314 7.24039 0.0417833 7.71092 0.127096C10.0091 0.447856 11.94 1.37311 13.365 2.84166C14.9487 4.47383 15.848 6.71547 15.981 9.37773C15.9909 9.49582 15.9966 9.61426 15.9979 9.73284C15.9993 9.75119 16 9.76973 16 9.78843V19.4239C16 19.8272 15.6731 20.1542 15.2698 20.1542H0.730223C0.326932 20.1542 0 19.8272 0 19.4239V0.730223C0 0.536542 0.0769449 0.350795 0.213905 0.213849ZM14.5396 10.1284C14.5384 10.1114 14.5378 10.0943 14.5378 10.0771C14.5378 9.87425 14.5331 9.67469 14.5238 9.47844C14.516 9.3933 14.5051 9.30845 14.491 9.22405C14.3132 8.15952 13.9806 7.38251 13.5252 6.91814C13.1084 6.49308 12.5174 6.25573 11.5884 6.41087L10.1974 6.64317C9.96467 6.68203 9.72755 6.60608 9.56073 6.43927C9.39392 6.27246 9.31797 6.03533 9.35683 5.80264L9.58913 4.4116C9.62026 4.22522 9.6359 4.03658 9.6359 3.84762C9.6359 2.93411 9.28472 2.39081 8.74945 2.04041C8.41527 1.82165 7.98505 1.66363 7.4751 1.56864C7.06594 1.51291 6.64027 1.47838 6.19846 1.46607L5.9129 1.46215C5.90205 1.462 5.89127 1.46162 5.88054 1.461L1.46045 1.46053V18.6937H14.5396V10.1284ZM10.9635 2.77095C11.0507 3.10072 11.0963 3.45972 11.0963 3.84762C11.0963 4.11718 11.074 4.38628 11.0296 4.65216L10.9658 5.03417L11.3478 4.97037C12.0581 4.85176 12.6997 4.89206 13.2642 5.07796C12.9885 4.63103 12.6715 4.22416 12.3169 3.8587C11.9183 3.44798 11.4666 3.08374 10.9635 2.77095Z" fill="black"/>
</svg>
