<svg width="28" height="24" viewBox="0 0 28 24" fill="none" xmlns="http://www.w3.org/2000/svg">
    <g opacity="0.7" clip-path="url(#clip0_8_1219)">
        <path d="M6.09113 5.04218L2.36694 1.53203L3.9919 0L7.71493 3.51123H25.2185C25.3975 3.51122 25.574 3.55065 25.734 3.62639C25.8939 3.70213 26.0329 3.81207 26.1398 3.94745C26.2466 4.08282 26.3185 4.23987 26.3495 4.40607C26.3806 4.57227 26.37 4.74301 26.3186 4.90467L23.5625 13.5663C23.4916 13.7895 23.3463 13.9851 23.1481 14.1242C22.9499 14.2632 22.7094 14.3383 22.4624 14.3383H8.38788V16.5037H21.02V18.6692H7.2395C6.93494 18.6692 6.64284 18.5551 6.42748 18.352C6.21212 18.149 6.09113 17.8736 6.09113 17.5865V5.04218ZM8.38788 5.67665V12.1729H21.608L23.6751 5.67665H8.38788ZM7.81369 23C7.35684 23 6.9187 22.8289 6.59566 22.5243C6.27261 22.2197 6.09113 21.8067 6.09113 21.3759C6.09113 20.9452 6.27261 20.5321 6.59566 20.2275C6.9187 19.923 7.35684 19.7519 7.81369 19.7519C8.27055 19.7519 8.70869 19.923 9.03173 20.2275C9.35477 20.5321 9.53626 20.9452 9.53626 21.3759C9.53626 21.8067 9.35477 22.2197 9.03173 22.5243C8.70869 22.8289 8.27055 23 7.81369 23ZM21.5942 23C21.1374 23 20.6992 22.8289 20.3762 22.5243C20.0531 22.2197 19.8716 21.8067 19.8716 21.3759C19.8716 20.9452 20.0531 20.5321 20.3762 20.2275C20.6992 19.923 21.1374 19.7519 21.5942 19.7519C22.0511 19.7519 22.4892 19.923 22.8122 20.2275C23.1353 20.5321 23.3168 20.9452 23.3168 21.3759C23.3168 21.8067 23.1353 22.2197 22.8122 22.5243C22.4892 22.8289 22.0511 23 21.5942 23Z" fill="#06070D"/>
    </g>
    <defs>
        <clipPath id="clip0_8_1219">
            <rect width="27.0846" height="24" fill="white" transform="translate(0.906494)"/>
        </clipPath>
    </defs>
</svg>
