<svg width="50" height="51" viewBox="0 0 50 51" fill="none" xmlns="http://www.w3.org/2000/svg">
    <path d="M25 50.0714C38.8071 50.0714 50 38.8785 50 25.0714C50 11.2643 38.8071 0.0714111 25 0.0714111C11.1929 0.0714111 0 11.2643 0 25.0714C0 38.8785 11.1929 50.0714 25 50.0714Z" fill="url(#paint0_linear_37_1232)"/>
    <path d="M37.4761 14.73C37.6986 13.2916 36.3311 12.1563 35.0521 12.7178L9.58003 23.9014C8.66291 24.3041 8.73 25.6934 9.68119 25.9962L14.9341 27.6691C15.9368 27.9884 17.0223 27.8232 17.8979 27.2184L29.7411 19.0362C30.0982 18.7894 30.4875 19.2973 30.1823 19.6118L21.6573 28.4011C20.8304 29.2537 20.9945 30.6986 21.9893 31.3223L31.5339 37.3077C32.6045 37.9789 33.9816 37.3046 34.1818 36.0109L37.4761 14.73Z" fill="white"/>
    <defs>
        <linearGradient id="paint0_linear_37_1232" x1="25" y1="0.0714111" x2="25" y2="50.0714" gradientUnits="userSpaceOnUse">
            <stop stop-color="#37BBFE"/>
            <stop offset="1" stop-color="#007DBB"/>
        </linearGradient>
    </defs>
</svg>
