<svg width="20" height="15" viewBox="0 0 20 15" fill="none" xmlns="http://www.w3.org/2000/svg">
    <path d="M17.2126 11.9401L19 11.9399V8.38887L16 5.08275H13V11.9399M17.2126 11.9401C17.0362 11.4406 16.5599 11.0827 16 11.0827M17.2126 11.9401C17.26 12.0741 17.2857 12.2183 17.2857 12.3685M16 11.0827C15.4401 11.0827 14.9638 11.4406 14.7874 11.9401M16 11.0827C16.7101 11.0827 17.2857 11.6584 17.2857 12.3685M16 11.0827C15.2899 11.0827 14.7143 11.6584 14.7143 12.3685M14.7874 11.9401L13 11.9399M14.7874 11.9401C14.74 12.0741 14.7143 12.2183 14.7143 12.3685M13 11.9399V1.65417H1M13 11.9399L6.92693 11.9401M6.92693 11.9401C6.7505 11.4406 6.27419 11.0827 5.71429 11.0827M6.92693 11.9401C6.97425 12.0741 7 12.2183 7 12.3685M5.71429 11.0827C5.15438 11.0827 4.67807 11.4406 4.50164 11.9401M5.71429 11.0827C6.42437 11.0827 7 11.6584 7 12.3685M5.71429 11.0827C5.00421 11.0827 4.42857 11.6584 4.42857 12.3685M4.50164 11.9401L3.57143 11.9399M4.50164 11.9401C4.45432 12.0741 4.42857 12.2183 4.42857 12.3685M17.2857 12.3685C17.2857 13.0785 16.7101 13.6542 16 13.6542C15.2899 13.6542 14.7143 13.0785 14.7143 12.3685M7 12.3685C7 13.0785 6.42437 13.6542 5.71429 13.6542C5.00421 13.6542 4.42857 13.0785 4.42857 12.3685M4 6.79703H2.71429M4 9.36846H3.57143M4 4.2256H1.85714" stroke="#2C64FD" stroke-width="1.5" stroke-linecap="round" stroke-linejoin="round"/>
</svg>
